<?xml version="1.0" standalone="no"?>
<svg xmlns:xlink="http://www.w3.org/1999/xlink" id="wave" style="transform:rotate(180deg); transition: 0.3s" viewBox="0 0 1440 100" version="1.1" xmlns="http://www.w3.org/2000/svg"><defs><linearGradient id="sw-gradient-0" x1="0" x2="0" y1="1" y2="0"><stop stop-color="rgba(255, 249, 234, 1)" offset="0%"/><stop stop-color="rgba(255, 249, 234, 1)" offset="100%"/></linearGradient></defs><path style="transform:translate(0, 0px); opacity:1" fill="url(#sw-gradient-0)" d="M0,0L26.7,13.3C53.3,27,107,53,160,61.7C213.3,70,267,60,320,46.7C373.3,33,427,17,480,8.3C533.3,0,587,0,640,15C693.3,30,747,60,800,68.3C853.3,77,907,63,960,61.7C1013.3,60,1067,70,1120,75C1173.3,80,1227,80,1280,71.7C1333.3,63,1387,47,1440,36.7C1493.3,27,1547,23,1600,23.3C1653.3,23,1707,27,1760,36.7C1813.3,47,1867,63,1920,70C1973.3,77,2027,73,2080,66.7C2133.3,60,2187,50,2240,41.7C2293.3,33,2347,27,2400,20C2453.3,13,2507,7,2560,15C2613.3,23,2667,47,2720,61.7C2773.3,77,2827,83,2880,73.3C2933.3,63,2987,37,3040,31.7C3093.3,27,3147,43,3200,51.7C3253.3,60,3307,60,3360,58.3C3413.3,57,3467,53,3520,51.7C3573.3,50,3627,50,3680,50C3733.3,50,3787,50,3813,50L3840,50L3840,100L3813.3,100C3786.7,100,3733,100,3680,100C3626.7,100,3573,100,3520,100C3466.7,100,3413,100,3360,100C3306.7,100,3253,100,3200,100C3146.7,100,3093,100,3040,100C2986.7,100,2933,100,2880,100C2826.7,100,2773,100,2720,100C2666.7,100,2613,100,2560,100C2506.7,100,2453,100,2400,100C2346.7,100,2293,100,2240,100C2186.7,100,2133,100,2080,100C2026.7,100,1973,100,1920,100C1866.7,100,1813,100,1760,100C1706.7,100,1653,100,1600,100C1546.7,100,1493,100,1440,100C1386.7,100,1333,100,1280,100C1226.7,100,1173,100,1120,100C1066.7,100,1013,100,960,100C906.7,100,853,100,800,100C746.7,100,693,100,640,100C586.7,100,533,100,480,100C426.7,100,373,100,320,100C266.7,100,213,100,160,100C106.7,100,53,100,27,100L0,100Z"/></svg>